<?xml version="1.0" standalone="no"?>
<!DOCTYPE svg PUBLIC "-//W3C//DTD SVG 20010904//EN"
 "http://www.w3.org/TR/2001/REC-SVG-20010904/DTD/svg10.dtd">
<svg version="1.0" xmlns="http://www.w3.org/2000/svg"
 width="32.000000pt" height="32.000000pt" viewBox="0 0 32.000000 32.000000"
 preserveAspectRatio="xMidYMid meet">
<metadata>
Created by potrace 1.10, written by Peter Selinger 2001-2011
</metadata>
<g transform="translate(0.000000,32.000000) scale(0.100000,-0.100000)"
fill="#000000" stroke="none">
<path d="M94 284 c0 -21 5 -34 13 -34 14 0 9 -38 -7 -69 -5 -8 -4 -26 1 -39 5
-14 7 -27 4 -30 -3 -3 -5 1 -5 9 0 11 -2 11 -10 -1 -7 -11 -10 -5 -11 25 l-2
40 -8 -40 c-6 -29 -6 -19 -3 35 5 78 -11 91 -19 15 l-4 -40 -1 43 c-2 35 -5
43 -19 40 -13 -2 -17 -16 -19 -71 -1 -45 2 -67 9 -68 7 -1 57 -2 112 -3 l100
-1 -2 40 -1 40 6 -40 c7 -39 8 -40 47 -40 37 0 40 2 37 25 -2 14 -8 29 -13 34
-12 13 -12 29 1 21 6 -3 10 -1 10 4 0 6 -7 11 -15 11 -18 0 -20 -41 -3 -58 6
-6 9 -15 5 -19 -18 -17 -29 19 -25 76 2 34 1 61 -4 61 -4 0 -8 -13 -8 -30 0
-16 -4 -31 -10 -31 -5 -1 -16 -2 -22 -3 -7 0 -16 -19 -19 -41 l-6 -40 -2 39
c0 22 -4 37 -7 33 -12 -11 -34 21 -34 49 0 15 -3 24 -7 20 -4 -4 -6 -23 -5
-42 3 -32 1 -35 -12 -21 -13 12 -13 21 -5 46 6 17 15 31 20 31 5 0 9 7 9 16 0
10 -5 14 -15 10 -9 -3 -18 1 -21 8 -12 30 -30 24 -30 -10z m36 -120 c0 -8 5
-12 10 -9 6 4 10 -5 10 -20 0 -32 -24 -29 -26 2 -1 12 -4 29 -7 38 -4 9 -3 14
3 10 6 -3 10 -13 10 -21z m130 -21 c0 -27 -3 -34 -11 -26 -7 7 -9 23 -5 37 9
37 16 32 16 -11z m-75 -13 c4 -17 3 -21 -3 -11 -8 11 -10 11 -15 0 -3 -8 -6 2
-6 21 -1 37 12 32 24 -10z"/>
</g>
</svg>
